<mxfile host="Electron" modified="2023-11-07T00:48:31.630Z" agent="Mozilla/5.0 (Windows NT 10.0; Win64; x64) AppleWebKit/537.36 (KHTML, like Gecko) draw.io/22.0.2 Chrome/114.0.5735.289 Electron/25.8.4 Safari/537.36" etag="leY7ho9-VNToPjtFnId8" version="22.0.2" type="device">
  <diagram name="PÃ¡gina-1" id="5oP0lG2DPZQ5_Z7gVyBX">
    <mxGraphModel dx="1036" dy="1775" grid="1" gridSize="10" guides="1" tooltips="1" connect="1" arrows="1" fold="1" page="1" pageScale="1" pageWidth="827" pageHeight="1169" math="0" shadow="0">
      <root>
        <mxCell id="0" />
        <mxCell id="1" parent="0" />
        <mxCell id="8XONMo2Wj_Vj32u0vaEi-7" style="edgeStyle=orthogonalEdgeStyle;rounded=0;orthogonalLoop=1;jettySize=auto;html=1;exitX=0.75;exitY=1;exitDx=0;exitDy=0;entryX=0;entryY=0.5;entryDx=0;entryDy=0;" edge="1" parent="1" source="8XONMo2Wj_Vj32u0vaEi-1" target="8XONMo2Wj_Vj32u0vaEi-3">
          <mxGeometry relative="1" as="geometry" />
        </mxCell>
        <mxCell id="8XONMo2Wj_Vj32u0vaEi-8" style="edgeStyle=orthogonalEdgeStyle;rounded=0;orthogonalLoop=1;jettySize=auto;html=1;exitX=0.25;exitY=1;exitDx=0;exitDy=0;entryX=1;entryY=0.5;entryDx=0;entryDy=0;" edge="1" parent="1" source="8XONMo2Wj_Vj32u0vaEi-1" target="8XONMo2Wj_Vj32u0vaEi-2">
          <mxGeometry relative="1" as="geometry" />
        </mxCell>
        <mxCell id="8XONMo2Wj_Vj32u0vaEi-22" style="edgeStyle=orthogonalEdgeStyle;rounded=0;orthogonalLoop=1;jettySize=auto;html=1;exitX=0;exitY=0.5;exitDx=0;exitDy=0;entryX=1;entryY=0.5;entryDx=0;entryDy=0;" edge="1" parent="1" source="8XONMo2Wj_Vj32u0vaEi-1" target="8XONMo2Wj_Vj32u0vaEi-20">
          <mxGeometry relative="1" as="geometry" />
        </mxCell>
        <mxCell id="8XONMo2Wj_Vj32u0vaEi-1" value="Servidor&amp;nbsp;&lt;br&gt;Programa2" style="rounded=0;whiteSpace=wrap;html=1;" vertex="1" parent="1">
          <mxGeometry x="330" y="80" width="120" height="60" as="geometry" />
        </mxCell>
        <mxCell id="8XONMo2Wj_Vj32u0vaEi-2" value="Cliente&lt;br&gt;Programa1" style="rounded=0;whiteSpace=wrap;html=1;" vertex="1" parent="1">
          <mxGeometry x="180" y="290" width="120" height="60" as="geometry" />
        </mxCell>
        <mxCell id="8XONMo2Wj_Vj32u0vaEi-6" style="edgeStyle=orthogonalEdgeStyle;rounded=0;orthogonalLoop=1;jettySize=auto;html=1;exitX=0;exitY=0.75;exitDx=0;exitDy=0;entryX=0.597;entryY=0.997;entryDx=0;entryDy=0;entryPerimeter=0;" edge="1" parent="1" source="8XONMo2Wj_Vj32u0vaEi-3" target="8XONMo2Wj_Vj32u0vaEi-1">
          <mxGeometry relative="1" as="geometry" />
        </mxCell>
        <mxCell id="8XONMo2Wj_Vj32u0vaEi-33" style="edgeStyle=orthogonalEdgeStyle;rounded=0;orthogonalLoop=1;jettySize=auto;html=1;exitX=0.5;exitY=1;exitDx=0;exitDy=0;entryX=0.5;entryY=0;entryDx=0;entryDy=0;" edge="1" parent="1" source="8XONMo2Wj_Vj32u0vaEi-3" target="8XONMo2Wj_Vj32u0vaEi-32">
          <mxGeometry relative="1" as="geometry" />
        </mxCell>
        <mxCell id="8XONMo2Wj_Vj32u0vaEi-3" value="Cliente&lt;br&gt;Programa3" style="rounded=0;whiteSpace=wrap;html=1;" vertex="1" parent="1">
          <mxGeometry x="480" y="290" width="120" height="60" as="geometry" />
        </mxCell>
        <mxCell id="8XONMo2Wj_Vj32u0vaEi-5" style="edgeStyle=orthogonalEdgeStyle;rounded=0;orthogonalLoop=1;jettySize=auto;html=1;exitX=1;exitY=0.75;exitDx=0;exitDy=0;entryX=0.403;entryY=0.997;entryDx=0;entryDy=0;entryPerimeter=0;" edge="1" parent="1" source="8XONMo2Wj_Vj32u0vaEi-2" target="8XONMo2Wj_Vj32u0vaEi-1">
          <mxGeometry relative="1" as="geometry">
            <mxPoint x="390" y="140" as="targetPoint" />
          </mxGeometry>
        </mxCell>
        <mxCell id="8XONMo2Wj_Vj32u0vaEi-41" style="edgeStyle=orthogonalEdgeStyle;rounded=0;orthogonalLoop=1;jettySize=auto;html=1;exitX=1;exitY=0.5;exitDx=0;exitDy=0;entryX=0;entryY=0.5;entryDx=0;entryDy=0;" edge="1" parent="1" source="8XONMo2Wj_Vj32u0vaEi-15" target="8XONMo2Wj_Vj32u0vaEi-17">
          <mxGeometry relative="1" as="geometry" />
        </mxCell>
        <mxCell id="8XONMo2Wj_Vj32u0vaEi-15" value="Leer el userInput" style="rounded=0;whiteSpace=wrap;html=1;" vertex="1" parent="1">
          <mxGeometry x="10" y="410" width="120" height="60" as="geometry" />
        </mxCell>
        <mxCell id="8XONMo2Wj_Vj32u0vaEi-42" style="edgeStyle=orthogonalEdgeStyle;rounded=0;orthogonalLoop=1;jettySize=auto;html=1;exitX=0.5;exitY=0;exitDx=0;exitDy=0;entryX=0.5;entryY=1;entryDx=0;entryDy=0;" edge="1" parent="1" source="8XONMo2Wj_Vj32u0vaEi-17" target="8XONMo2Wj_Vj32u0vaEi-2">
          <mxGeometry relative="1" as="geometry" />
        </mxCell>
        <mxCell id="8XONMo2Wj_Vj32u0vaEi-17" value="Mandar msg codificado a progrma2" style="rounded=0;whiteSpace=wrap;html=1;" vertex="1" parent="1">
          <mxGeometry x="180" y="410" width="120" height="60" as="geometry" />
        </mxCell>
        <mxCell id="8XONMo2Wj_Vj32u0vaEi-23" style="edgeStyle=orthogonalEdgeStyle;rounded=0;orthogonalLoop=1;jettySize=auto;html=1;exitX=0;exitY=0.5;exitDx=0;exitDy=0;entryX=0;entryY=0.25;entryDx=0;entryDy=0;" edge="1" parent="1" source="8XONMo2Wj_Vj32u0vaEi-20" target="8XONMo2Wj_Vj32u0vaEi-21">
          <mxGeometry relative="1" as="geometry" />
        </mxCell>
        <mxCell id="8XONMo2Wj_Vj32u0vaEi-20" value="Leer el msg de Progr1" style="rounded=0;whiteSpace=wrap;html=1;" vertex="1" parent="1">
          <mxGeometry x="160" y="80" width="120" height="60" as="geometry" />
        </mxCell>
        <mxCell id="8XONMo2Wj_Vj32u0vaEi-26" value="Si" style="edgeStyle=orthogonalEdgeStyle;rounded=0;orthogonalLoop=1;jettySize=auto;html=1;exitX=0.5;exitY=1;exitDx=0;exitDy=0;entryX=0;entryY=0.5;entryDx=0;entryDy=0;" edge="1" parent="1" source="8XONMo2Wj_Vj32u0vaEi-21" target="8XONMo2Wj_Vj32u0vaEi-24">
          <mxGeometry relative="1" as="geometry" />
        </mxCell>
        <mxCell id="8XONMo2Wj_Vj32u0vaEi-27" value="No" style="edgeStyle=orthogonalEdgeStyle;rounded=0;orthogonalLoop=1;jettySize=auto;html=1;exitX=1;exitY=0.5;exitDx=0;exitDy=0;entryX=0;entryY=0.5;entryDx=0;entryDy=0;" edge="1" parent="1" source="8XONMo2Wj_Vj32u0vaEi-21" target="8XONMo2Wj_Vj32u0vaEi-28">
          <mxGeometry relative="1" as="geometry">
            <mxPoint x="490" y="-50" as="targetPoint" />
          </mxGeometry>
        </mxCell>
        <mxCell id="8XONMo2Wj_Vj32u0vaEi-21" value="Ver si la busqueda esta en cache" style="rounded=0;whiteSpace=wrap;html=1;" vertex="1" parent="1">
          <mxGeometry x="160" y="-80" width="120" height="60" as="geometry" />
        </mxCell>
        <mxCell id="8XONMo2Wj_Vj32u0vaEi-40" style="edgeStyle=orthogonalEdgeStyle;rounded=0;orthogonalLoop=1;jettySize=auto;html=1;exitX=0.5;exitY=1;exitDx=0;exitDy=0;entryX=0.5;entryY=0;entryDx=0;entryDy=0;" edge="1" parent="1" source="8XONMo2Wj_Vj32u0vaEi-24" target="8XONMo2Wj_Vj32u0vaEi-1">
          <mxGeometry relative="1" as="geometry" />
        </mxCell>
        <mxCell id="8XONMo2Wj_Vj32u0vaEi-24" value="Mandar Resultado codificado a Programa1" style="rounded=0;whiteSpace=wrap;html=1;" vertex="1" parent="1">
          <mxGeometry x="330" width="120" height="60" as="geometry" />
        </mxCell>
        <mxCell id="8XONMo2Wj_Vj32u0vaEi-30" style="edgeStyle=orthogonalEdgeStyle;rounded=0;orthogonalLoop=1;jettySize=auto;html=1;exitX=0.25;exitY=1;exitDx=0;exitDy=0;entryX=1;entryY=0.25;entryDx=0;entryDy=0;" edge="1" parent="1" source="8XONMo2Wj_Vj32u0vaEi-28" target="8XONMo2Wj_Vj32u0vaEi-1">
          <mxGeometry relative="1" as="geometry" />
        </mxCell>
        <mxCell id="8XONMo2Wj_Vj32u0vaEi-28" value="Mandar msg al programa3" style="rounded=0;whiteSpace=wrap;html=1;" vertex="1" parent="1">
          <mxGeometry x="480" y="-80" width="120" height="60" as="geometry" />
        </mxCell>
        <mxCell id="8XONMo2Wj_Vj32u0vaEi-36" style="edgeStyle=orthogonalEdgeStyle;rounded=0;orthogonalLoop=1;jettySize=auto;html=1;exitX=1;exitY=0.5;exitDx=0;exitDy=0;entryX=0;entryY=0.5;entryDx=0;entryDy=0;" edge="1" parent="1" source="8XONMo2Wj_Vj32u0vaEi-32" target="8XONMo2Wj_Vj32u0vaEi-34">
          <mxGeometry relative="1" as="geometry" />
        </mxCell>
        <mxCell id="8XONMo2Wj_Vj32u0vaEi-32" value="Leer el msg de programa2" style="rounded=0;whiteSpace=wrap;html=1;" vertex="1" parent="1">
          <mxGeometry x="480" y="430" width="120" height="60" as="geometry" />
        </mxCell>
        <mxCell id="8XONMo2Wj_Vj32u0vaEi-37" style="edgeStyle=orthogonalEdgeStyle;rounded=0;orthogonalLoop=1;jettySize=auto;html=1;exitX=0.5;exitY=0;exitDx=0;exitDy=0;entryX=0.5;entryY=1;entryDx=0;entryDy=0;" edge="1" parent="1" source="8XONMo2Wj_Vj32u0vaEi-34" target="8XONMo2Wj_Vj32u0vaEi-35">
          <mxGeometry relative="1" as="geometry" />
        </mxCell>
        <mxCell id="8XONMo2Wj_Vj32u0vaEi-34" value="Hacer la busqueda en el indice invertido" style="rounded=0;whiteSpace=wrap;html=1;" vertex="1" parent="1">
          <mxGeometry x="650" y="430" width="120" height="60" as="geometry" />
        </mxCell>
        <mxCell id="8XONMo2Wj_Vj32u0vaEi-38" style="edgeStyle=orthogonalEdgeStyle;rounded=0;orthogonalLoop=1;jettySize=auto;html=1;exitX=0;exitY=0.5;exitDx=0;exitDy=0;entryX=1;entryY=0.5;entryDx=0;entryDy=0;" edge="1" parent="1" source="8XONMo2Wj_Vj32u0vaEi-35" target="8XONMo2Wj_Vj32u0vaEi-3">
          <mxGeometry relative="1" as="geometry" />
        </mxCell>
        <mxCell id="8XONMo2Wj_Vj32u0vaEi-35" value="Mandar msg codificado al progrma2" style="rounded=0;whiteSpace=wrap;html=1;" vertex="1" parent="1">
          <mxGeometry x="650" y="290" width="120" height="60" as="geometry" />
        </mxCell>
      </root>
    </mxGraphModel>
  </diagram>
</mxfile>
